<svg width="31" height="31" fill="none" xmlns="http://www.w3.org/2000/svg"><g clip-path="url(#clip0_58_384)"><path d="M26.887 8.815H23.89s-.016 1.72-.033 2.048h3.031a2.05 2.05 0 012.049 2.048v5.129a2.05 2.05 0 01-2.049 2.048h-5.734c-1.196 0-2.081-.115-2.736-.344-.934-.312-1.41-.852-1.639-1.573-.459.016-.901.016-1.262.016h-.835c.328 1.59 1.245 3.048 3.752 3.654.508.115 1.081.197 1.704.246v4.751a2.05 2.05 0 01-2.048 2.048h-5.161a2.049 2.049 0 01-2.049-2.048v-5.734c0-4.62 1.737-4.62 4.621-4.62 2.818 0 6.685 0 6.685-6.686V4.063a4.126 4.126 0 00-4.113-4.112L12.928 0a4.126 4.126 0 00-4.113 4.113v4.702H4.113A4.115 4.115 0 000 12.928v5.128a4.115 4.115 0 004.113 4.113H7.11v-1.033c0-.36.016-.704.033-1.032h-3.03a2.049 2.049 0 01-2.049-2.048v-5.128a2.05 2.05 0 012.049-2.049h5.734c1.196 0 2.081.115 2.737.345.933.31 1.409.852 1.638 1.572.459-.016.901-.016 1.262-.016h.835c-.327-1.59-1.245-3.047-3.752-3.654a12.15 12.15 0 00-1.704-.245V4.129a2.05 2.05 0 012.048-2.048h5.145c1.13 0 2.048.917 2.048 2.048v5.735c0 4.62-1.737 4.62-4.62 4.62-2.819 0-6.685 0-6.685 6.685v5.735a4.126 4.126 0 004.112 4.112h5.145a4.126 4.126 0 004.113-4.112V22.2h4.702a4.126 4.126 0 004.113-4.112v-5.161c.016-2.262-1.836-4.113-4.097-4.113z" fill="url(#paint0_linear_58_384)"/></g><defs><linearGradient id="paint0_linear_58_384" x1="0" y1="15.496" x2="30.994" y2="15.496" gradientUnits="userSpaceOnUse"><stop stop-color="#2B88D9"/><stop offset="1" stop-color="#26E0F5"/></linearGradient><clipPath id="clip0_58_384"><path fill="#fff" d="M0 0h31v31H0z"/></clipPath></defs></svg>